<svg width="500" height="302" viewBox="0 0 500 302" fill="none" xmlns="http://www.w3.org/2000/svg">
<g clip-path="url(#clip0_3_4)">
<path d="M288.598 242.235C287.43 242.235 286.289 242.581 285.319 243.23C284.348 243.878 283.592 244.8 283.145 245.878C282.699 246.957 282.582 248.143 282.809 249.288C283.037 250.433 283.599 251.484 284.425 252.31C285.25 253.135 286.302 253.697 287.446 253.925C288.591 254.153 289.778 254.036 290.856 253.589C291.935 253.142 292.856 252.386 293.505 251.415C294.153 250.445 294.499 249.304 294.499 248.137C294.499 246.572 293.878 245.07 292.771 243.964C291.664 242.857 290.163 242.235 288.598 242.235ZM288.598 251.769C287.879 251.769 287.177 251.556 286.58 251.157C285.983 250.757 285.517 250.19 285.242 249.527C284.967 248.863 284.895 248.133 285.036 247.428C285.176 246.724 285.522 246.077 286.03 245.569C286.538 245.061 287.185 244.715 287.889 244.575C288.594 244.434 289.324 244.506 289.988 244.781C290.651 245.056 291.218 245.522 291.618 246.119C292.017 246.716 292.23 247.418 292.23 248.137V248.137C292.23 249.1 291.847 250.024 291.166 250.705C290.485 251.386 289.561 251.769 288.598 251.769V251.769Z" fill="#E4E4E4"/>
<path d="M265.899 237.695H288.598V260.161C288.598 260.945 288.286 261.697 287.732 262.252C287.177 262.806 286.425 263.118 285.641 263.118H268.856C268.072 263.118 267.319 262.806 266.765 262.252C266.21 261.697 265.899 260.945 265.899 260.161V237.695V237.695Z" fill="#E4E4E4"/>
<path d="M341.633 263.632H0.460391C0.333866 263.618 0.216919 263.558 0.131965 263.463C0.047011 263.368 3.05176e-05 263.246 3.05176e-05 263.118C3.05176e-05 262.991 0.047011 262.868 0.131965 262.773C0.216919 262.679 0.333866 262.619 0.460391 262.605H341.633C341.76 262.619 341.877 262.679 341.962 262.773C342.047 262.868 342.094 262.991 342.094 263.118C342.094 263.246 342.047 263.368 341.962 263.463C341.877 263.558 341.76 263.618 341.633 263.632V263.632Z" fill="#CACACA"/>
<path d="M45.9237 253.929L43.8138 264.363L83.0516 277.468L86.1662 262.069L45.9237 253.929Z" fill="#FFB6B6"/>
<path d="M49.8686 251.957L45.7127 272.504L45.7125 272.505C45.0098 275.978 42.9565 279.029 40.0042 280.988C37.052 282.946 33.4425 283.652 29.9699 282.95L29.5444 282.864L36.3489 249.223L49.8686 251.957Z" fill="#2F2E41"/>
<path d="M90.3885 110.217C105.103 110.217 117.031 98.2887 117.031 83.5744C117.031 68.8602 105.103 56.9319 90.3885 56.9319C75.6742 56.9319 63.7459 68.8602 63.7459 83.5744C63.7459 98.2887 75.6742 110.217 90.3885 110.217Z" fill="#FEB8B8"/>
<path d="M115.273 60.5894C111.29 54.1212 105.055 49.355 97.7678 47.2083L94.497 49.5952V46.4959C92.747 46.2281 90.9758 46.1249 89.2066 46.1877L86.3847 48.741V46.3999C82.2067 46.9191 78.1815 48.2983 74.563 50.4506C70.9445 52.603 67.8113 55.4817 65.3608 58.9052C59.2326 67.7397 58.1982 80.0304 64.2256 88.9357C65.88 83.8508 67.8883 79.0796 69.5433 73.9952C70.8437 74.1725 72.1617 74.1789 73.4638 74.0142L75.4767 69.3171L76.0392 73.8154C82.2787 73.272 91.5333 72.0783 97.4483 70.9848L96.8731 67.5337L100.314 70.4013C102.126 69.9843 103.203 69.6057 103.114 69.3166C107.513 76.4088 112.897 80.9385 117.296 88.0307C118.966 78.0303 120.889 69.7151 115.273 60.5894Z" fill="#2F2E41"/>
<path d="M99.057 257.918C136.944 257.918 167.658 249.327 167.658 238.729C167.658 228.131 136.944 219.54 99.057 219.54C61.17 219.54 30.4565 228.131 30.4565 238.729C30.4565 249.327 61.17 257.918 99.057 257.918Z" fill="#2F2E41"/>
<path d="M147.689 152.087C146.773 146.575 145.828 140.957 143.266 135.992C141.583 132.74 138.91 129.64 135.308 128.997C134.598 128.934 133.9 128.773 133.235 128.518C132.18 128.009 117.994 119.911 115.739 118.501C113.803 117.29 110.747 115.048 109.207 115.048C107.656 115.014 101.712 116.397 78.5119 114.584C74.6094 116.15 70.8303 118.008 67.2067 120.142C67.132 120.093 43.1268 132.984 42.2249 132.95C40.517 132.878 38.9295 133.971 37.9503 135.349C36.9715 136.726 36.5123 138.43 36.0315 140.079C41.2746 151.755 46.0719 163.446 51.3155 175.123C51.561 175.562 51.6915 176.057 51.6947 176.561C51.5894 177.083 51.3663 177.575 51.0424 177.999C48.471 182.129 48.5528 187.325 48.8337 192.18C49.1148 197.035 49.4624 202.163 47.2928 206.514C46.7026 207.709 45.9352 208.802 45.3739 209.997C44.0595 212.703 43.5845 221.357 44.3522 224.264L140.538 227.02C138.47 221.335 147.689 152.087 147.689 152.087Z" fill="#48BB78"/>
<path d="M27.7173 175.64C27.5253 177.029 27.506 178.435 27.6597 179.828L29.0383 199.627C29.1678 201.493 29.2951 203.354 29.4703 205.216C29.8011 208.828 30.2952 212.412 30.9085 215.99C30.9223 216.498 31.1372 216.98 31.5059 217.33C31.8746 217.68 32.367 217.869 32.8751 217.856C38.9437 219.14 45.2136 219.089 51.407 218.739C60.8578 218.212 85.0364 217.214 86.5136 215.295C87.9908 213.376 87.13 210.272 85.2039 208.72C83.2778 207.168 51.3705 203.386 51.3705 203.386C51.6823 200.915 52.6227 198.588 53.5149 196.242C55.1174 192.082 56.6141 187.785 56.6429 183.328C56.6717 178.871 54.9926 174.186 51.3417 171.632C48.3385 169.536 44.4719 169.147 40.8123 169.234C38.1496 169.31 33.549 168.672 31.117 169.713C29.1924 170.561 28.0768 173.756 27.7173 175.64Z" fill="#FBBEBE"/>
<path d="M147.86 220.394C149.457 219.785 151.218 220.006 152.93 220.236C158.443 220.989 164.036 221.762 169.145 223.964C171.544 224.991 173.827 226.362 175.449 228.381C176.887 230.199 177.727 232.425 178.524 234.617L180.366 239.664C181.15 241.56 181.69 243.548 181.973 245.579C182.549 251.619 178.419 257.313 173.223 260.451C168.028 263.589 161.912 264.706 155.953 265.877C149.994 267.047 144.013 268.342 138.079 269.714C135.311 270.433 132.503 270.985 129.669 271.369C123.317 272.088 116.678 271.029 110.643 273.13C108.244 273.97 105.889 275.217 103.401 275.797C101.747 276.145 100.075 276.4 98.3924 276.56L86.9702 277.865C84.6476 278.175 82.3092 278.355 79.9664 278.402C74.9775 278.402 70.0697 277.221 65.2252 276.039C64.7104 275.949 64.2204 275.751 63.787 275.459C63.0196 274.854 62.8517 273.784 62.7412 272.816C62.2519 268.527 61.8239 264.233 61.4572 259.935C61.3421 258.539 61.2558 257.028 62.0186 255.853C62.978 254.415 64.8492 253.963 66.557 253.684C73.7988 252.5 81.135 251.991 88.4711 252.164C91.258 249.377 95.854 249.362 99.5049 247.846C100.848 247.229 102.148 246.522 103.396 245.73C109.926 241.92 117.224 239.615 124.758 238.981C126.233 238.936 127.699 238.727 129.128 238.357C131.953 237.479 134.53 235.09 137.432 235.676C137.791 234.683 138.041 233.353 138.87 232.672C139.281 232.322 139.791 232.087 140.17 231.713C140.971 230.902 141.043 229.626 140.923 228.494C140.803 227.362 140.534 226.201 140.827 225.097C140.949 224.68 141.128 224.281 141.36 223.912C142.794 221.43 144.967 220.155 147.86 220.394Z" fill="#2F2E41"/>
<path d="M35.7541 140.434C35.2868 140.923 34.9245 141.503 34.6893 142.137C30.8116 150.876 28.5212 160.236 27.9253 169.779C27.9358 170.244 27.8285 170.704 27.6135 171.117C27.4015 171.392 27.1655 171.647 26.9083 171.88C26.6841 172.146 26.5144 172.453 26.409 172.785C26.3035 173.116 26.2644 173.465 26.2938 173.811C26.3232 174.158 26.4206 174.495 26.5804 174.804C26.7401 175.113 26.9592 175.388 27.225 175.612C27.2686 175.649 27.3134 175.684 27.3593 175.718C28.1508 174.228 30.0456 173.741 31.7298 173.612C39.7938 172.974 47.6708 176.726 55.759 176.443C55.1883 174.471 54.3675 172.576 53.9022 170.58C51.8441 161.72 56.9773 152.073 53.8303 143.538C53.2016 141.83 52.1512 140.151 50.4963 139.403C49.811 139.127 49.0939 138.937 48.3617 138.838C46.3179 138.469 42.2494 136.89 40.2735 137.524C39.5442 137.759 39.2565 138.445 38.652 138.859C37.7336 139.446 36.5153 139.661 35.7541 140.434Z" fill="#48BB78"/>
<path d="M147.747 169.713C145.315 168.672 140.714 169.31 138.051 169.234C134.392 169.147 130.525 169.536 127.522 171.632C123.871 174.186 122.192 178.871 122.221 183.328C122.249 187.785 123.746 192.082 125.349 196.242C126.241 198.588 127.181 200.915 127.493 203.386C127.493 203.386 95.5859 207.168 93.6597 208.72C91.7336 210.272 90.8728 213.376 92.35 215.295C93.8272 217.214 139.92 219.14 145.988 217.856C146.497 217.869 146.989 217.68 147.358 217.33C147.726 216.98 147.941 216.498 147.955 215.99C148.568 212.412 149.063 208.828 149.393 205.216C149.568 203.354 149.696 201.493 149.825 199.627L151.204 179.828C151.358 178.435 151.338 177.029 151.146 175.64C150.787 173.756 149.671 170.561 147.747 169.713Z" fill="#FBBEBE"/>
<path d="M140.212 138.859C139.607 138.445 139.319 137.759 138.59 137.524C136.614 136.89 132.546 138.469 130.502 138.838C129.77 138.937 129.053 139.127 128.367 139.403C126.712 140.151 125.662 141.83 125.033 143.538C121.886 152.073 127.02 161.72 124.961 170.58C124.496 172.576 123.675 174.471 123.105 176.443C131.193 176.726 139.07 172.974 147.134 173.612C148.818 173.741 150.713 174.228 151.504 175.718C151.55 175.684 151.595 175.649 151.639 175.612C151.904 175.388 152.123 175.113 152.283 174.804C152.443 174.495 152.54 174.158 152.57 173.811C152.599 173.465 152.56 173.116 152.455 172.785C152.349 172.453 152.18 172.146 151.955 171.88C151.698 171.647 151.462 171.392 151.25 171.117C151.035 170.704 150.928 170.244 150.938 169.779C150.342 160.236 148.052 150.876 144.174 142.137C143.939 141.503 143.577 140.923 143.11 140.434C142.348 139.661 141.13 139.446 140.212 138.859Z" fill="#48BB78"/>
<path d="M153.7 268.823L152.298 279.375L110.931 278.987L113.001 263.414L153.7 268.823Z" fill="#FFB6B6"/>
<path d="M164.287 267.491L159.765 301.514L159.334 301.457C155.822 300.99 152.639 299.147 150.486 296.334C148.332 293.521 147.385 289.967 147.851 286.455L147.851 286.454L150.613 265.674L164.287 267.491Z" fill="#2F2E41"/>
<path d="M56.381 225.734C56.381 226.214 55.628 225.734 55.5591 225.221C55.0316 221.34 51.9514 218.14 48.3632 216.585C44.775 215.031 40.6875 214.949 36.8019 215.319C30.9254 215.875 24.3288 218.125 22.1798 223.618C21.6713 224.902 16.9079 236.335 17.3727 238.907C18.625 245.767 23.3165 251.634 29.0013 255.697C34.6862 259.761 41.3285 262.188 47.9543 264.378C65.4723 270.155 83.4456 274.448 101.684 277.21C104.639 277.657 107.623 278.069 110.453 279.019C112.986 279.868 115.356 281.139 117.831 282.137C123.588 284.448 129.781 285.274 135.917 286.085C136.962 286.22 138.162 286.315 138.934 285.606C139.932 284.681 139.602 283.068 139.318 281.739C138.277 276.686 139.15 271.427 141.77 266.983C142.797 265.256 144.132 263.485 143.938 261.487C143.708 259.156 141.386 257.505 139.074 257.131C136.761 256.756 134.411 257.309 132.088 257.611C131.292 257.793 130.458 257.711 129.714 257.375C129.368 257.142 129.056 256.865 128.783 256.55C127.183 255.007 125.136 254.011 122.935 253.703C120.734 253.395 118.492 253.793 116.531 254.838C115.672 255.318 114.373 254.248 113.48 253.845L103.391 249.278C91.8009 244.035 80.1533 238.767 67.8914 235.447C66.913 235.255 65.9832 234.868 65.1569 234.31C64.5477 233.83 64.1111 233.18 63.5497 232.646C62.3262 231.489 60.622 231.029 59.1556 230.208C57.6892 229.388 56.045 227.379 56.381 225.734Z" fill="#2F2E41"/>
<path d="M82.4978 218.802C86.4692 218.802 89.6886 215.582 89.6886 211.611C89.6886 207.639 86.4692 204.42 82.4978 204.42C78.5264 204.42 75.3069 207.639 75.3069 211.611C75.3069 215.582 78.5264 218.802 82.4978 218.802Z" fill="#FBBEBE"/>
<path d="M98.4204 218.802C102.392 218.802 105.611 215.582 105.611 211.611C105.611 207.639 102.392 204.42 98.4204 204.42C94.449 204.42 91.2295 207.639 91.2295 211.611C91.2295 215.582 94.449 218.802 98.4204 218.802Z" fill="#FBBEBE"/>
<path d="M142.808 227.814H44.0164C42.863 227.813 41.7572 227.354 40.9416 226.539C40.126 225.723 39.6672 224.617 39.6658 223.464V163.53C39.6672 162.377 40.126 161.271 40.9416 160.456C41.7572 159.64 42.863 159.181 44.0164 159.18H142.808C143.961 159.181 145.067 159.64 145.882 160.456C146.698 161.271 147.157 162.377 147.158 163.53V223.464C147.157 224.617 146.698 225.723 145.882 226.539C145.067 227.354 143.961 227.813 142.808 227.814Z" fill="#3F3D56"/>
<path d="M93.1724 196.376C94.762 196.376 96.0507 195.087 96.0507 193.497C96.0507 191.907 94.762 190.619 93.1724 190.619C91.5827 190.619 90.294 191.907 90.294 193.497C90.294 195.087 91.5827 196.376 93.1724 196.376Z" fill="white"/>
<path d="M445.847 108.095H317.494C316.813 108.094 316.161 107.823 315.679 107.342C315.198 106.86 314.927 106.208 314.926 105.527V81.3346H315.953V105.527C315.954 105.935 316.116 106.327 316.405 106.616C316.694 106.905 317.086 107.067 317.494 107.068H445.847C446.255 107.067 446.647 106.905 446.936 106.616C447.225 106.327 447.387 105.935 447.388 105.527V81.1655H448.415V105.527C448.414 106.208 448.143 106.86 447.662 107.342C447.181 107.823 446.528 108.094 445.847 108.095V108.095Z" fill="#3F3D56"/>
<path d="M492.375 80.821H190.761V81.8482H492.375V80.821Z" fill="#3F3D56"/>
<path d="M190.783 90.0898C195.663 90.0898 199.618 86.1341 199.618 81.2544C199.618 76.3747 195.663 72.4189 190.783 72.4189C185.903 72.4189 181.947 76.3747 181.947 81.2544C181.947 86.1341 185.903 90.0898 190.783 90.0898Z" fill="#48BB78"/>
<path d="M280.568 90.0898C285.448 90.0898 289.404 86.1341 289.404 81.2544C289.404 76.3747 285.448 72.4189 280.568 72.4189C275.688 72.4189 271.733 76.3747 271.733 81.2544C271.733 86.1341 275.688 90.0898 280.568 90.0898Z" fill="#48BB78"/>
<path d="M341.501 116.06C346.381 116.06 350.337 112.104 350.337 107.224C350.337 102.344 346.381 98.3886 341.501 98.3886C336.621 98.3886 332.666 102.344 332.666 107.224C332.666 112.104 336.621 116.06 341.501 116.06Z" fill="#3F3D56"/>
<path d="M387.824 116.06C392.704 116.06 396.659 112.104 396.659 107.224C396.659 102.344 392.704 98.3886 387.824 98.3886C382.944 98.3886 378.988 102.344 378.988 107.224C378.988 112.104 382.944 116.06 387.824 116.06Z" fill="#CCCCCC"/>
<path d="M365.377 90.0898C370.256 90.0898 374.212 86.1341 374.212 81.2544C374.212 76.3747 370.256 72.4189 365.377 72.4189C360.497 72.4189 356.541 76.3747 356.541 81.2544C356.541 86.1341 360.497 90.0898 365.377 90.0898Z" fill="#48BB78"/>
<path d="M491.165 90.0898C496.044 90.0898 500 86.1341 500 81.2544C500 76.3747 496.044 72.4189 491.165 72.4189C486.285 72.4189 482.329 76.3747 482.329 81.2544C482.329 86.1341 486.285 90.0898 491.165 90.0898Z" fill="#48BB78"/>
<path d="M447.901 90.0898C452.781 90.0898 456.737 86.1341 456.737 81.2544C456.737 76.3747 452.781 72.4189 447.901 72.4189C443.022 72.4189 439.066 76.3747 439.066 81.2544C439.066 86.1341 443.022 90.0898 447.901 90.0898Z" fill="#48BB78"/>
<path d="M349.498 0H333.11V11.2947H349.498V0Z" fill="#3F3D56"/>
<path d="M199.042 0H182.653V11.2947H199.042V0Z" fill="#48BB78"/>
<path d="M254.551 0H238.163V11.2947H254.551V0Z" fill="#CCCCCC"/>
<path d="M218.181 81.8482C218.045 81.8482 217.914 81.7941 217.818 81.6978C217.722 81.6014 217.668 81.4708 217.668 81.3346V55.9806C217.668 55.2997 217.939 54.6469 218.421 54.1655C218.902 53.684 219.555 53.4132 220.236 53.4124H245.237C245.373 53.4124 245.504 53.4665 245.6 53.5629C245.696 53.6592 245.75 53.7898 245.75 53.926C245.75 54.0623 245.696 54.1929 245.6 54.2892C245.504 54.3856 245.373 54.4397 245.237 54.4397H220.236C219.827 54.4401 219.436 54.6026 219.147 54.8915C218.858 55.1804 218.695 55.572 218.695 55.9806V81.3346C218.695 81.4708 218.641 81.6014 218.544 81.6978C218.448 81.7941 218.318 81.8482 218.181 81.8482V81.8482Z" fill="#3F3D56"/>
<path d="M246.412 62.5695C251.291 62.5695 255.247 58.6137 255.247 53.734C255.247 48.8543 251.291 44.8985 246.412 44.8985C241.532 44.8985 237.576 48.8543 237.576 53.734C237.576 58.6137 241.532 62.5695 246.412 62.5695Z" fill="#E6E6E6"/>
<path d="M415.929 81.3346H414.902V55.9806C414.903 55.2997 415.174 54.6469 415.655 54.1655C416.136 53.684 416.789 53.4132 417.47 53.4124H442.471V54.4397H417.47C417.062 54.4401 416.67 54.6026 416.381 54.8915C416.092 55.1804 415.93 55.572 415.929 55.9806V81.3346Z" fill="#3F3D56"/>
<path d="M443.646 62.5695C448.526 62.5695 452.481 58.6137 452.481 53.734C452.481 48.8543 448.526 44.8985 443.646 44.8985C438.766 44.8985 434.81 48.8543 434.81 53.734C434.81 58.6137 438.766 62.5695 443.646 62.5695Z" fill="#E6E6E6"/>
</g>
<defs>
<clipPath id="clip0_3_4">
<rect width="500" height="301.514" fill="white"/>
</clipPath>
</defs>
</svg>
